<svg id="flat" height="512" viewBox="0 0 512 512" width="512" xmlns="http://www.w3.org/2000/svg"><path d="m280 296v40l-32 56-19.05 33.33008a39.99159 39.99159 0 0 1 -38.91 19.93992l-126.04-13.27-8-40h120l10.29-30.85986 21.71-65.14014z" fill="#ffceb6"/><path d="m280 296v40l-32 56-61.71-30.86 21.71-65.14z" fill="#ffa100"/><path d="m64 432-24 40h-16v-80h32z" fill="#e0edff"/><path d="m448 432-40 24-24-120h-136a40.00182 40.00182 0 0 1 -40-40v-48h80l64 14.22 51.90991 11.54a39.996 39.996 0 0 1 31.10009 34.86012z" fill="#ffceb6"/><path d="m352 262.22v73.78h-104a40.00182 40.00182 0 0 1 -40-40v-48h80z" fill="#ffb401"/><path d="m256 120 39.51473 39.51473a28.97051 28.97051 0 0 1 8.48527 20.48527 28.97051 28.97051 0 0 1 -8.48527 20.48526l-7.51473 7.51474v40h-80v-64a79.99993 79.99993 0 0 1 32-64z" fill="#ef5e3b"/><path d="m232 60-20.13535-10.0714a18.25652 18.25652 0 0 0 -8.16698-1.9286h-.27132a19.43223 19.43223 0 0 0 -19.4371 19.44115c.0029 5.75094.005 12.22272.00656 18.60823a81.92562 81.92562 0 0 1 -23.99581 57.95062h24a40 40 0 0 0 40-40v-16z" fill="#b1712c"/><path d="m240 88 16-16h32v32a32 32 0 0 1 -32 32 32 32 0 0 1 -32-32v-16z" fill="#ffceb6"/><path d="m288 72a32 32 0 0 0 -32-32 32 32 0 0 0 -32 32v16h16l16-16z" fill="#c78640"/><path d="m275.486 174.31954-35.486 49.68046 24 48 24 8 8 8-8 16h-48l-36-48a59.99993 59.99993 0 0 1 -12-36 59.99993 59.99993 0 0 1 12-36l26.54035-35.38714a31.5322 31.5322 0 0 1 25.22575-12.61286 24.23386 24.23386 0 0 1 24.2339 24.23386 24.23388 24.23388 0 0 1 -4.514 14.08568z" fill="#ffceb6"/><path d="m408 456 40-24 40 24v16h-80z" fill="#e0edff"/></svg>