<svg id="Layer_1" enable-background="new 0 0 207.093 155.732" height="512" viewBox="0 0 207.093 155.732" width="512" xmlns="http://www.w3.org/2000/svg"><g><ellipse cx="184.596" cy="22.497" rx="22.493" ry="22.496" transform="matrix(.84 -.543 .543 .84 17.399 103.902)"/><path d="m17.146 147.838c44.046-17.628 71.138-40.644 83.678-53.184 1.006-.343 2.071-.935 3.232-1.821 2.68 1.141 5.7 2.605 8.564 4.426 3.729 2.33 7.075 5.18 9.191 8.08 2.126 2.961 3.172 5.64 3.209 9.253.01 4.366-1.824 11.192-9.394 20.979-4.23 5.454-3.239 13.306 2.217 17.539 2.278 1.766 4.976 2.621 7.651 2.621 3.732.001 7.423-1.663 9.887-4.84 9.771-12.579 14.631-24.714 14.639-36.299.04-9.761-3.634-18.339-8.54-24.694-5.698-7.372-12.731-12.367-19.195-15.95 5.915-5.146 12.302-9.753 18.158-13.82-.621-.948-1.217-1.916-1.756-2.925-3.099-5.858-4.935-12.615-5.177-19.03l-.006-.183-.004-.053-.002-.071c-.019-2.281.741-4.386 2.018-6.081 1.81-2.402 4.668-3.975 7.9-4.002 5.536 0 10.022 4.438 10.083 9.89l.012.201c.015.23.043.587.094 1.032.011.099.023.198.036.307.116.897.413 2.721 1.081 4.776.436 1.326.962 2.541 1.56 3.668 4.018-5.413 5.496-12.084 2.37-17.084-.84-1.344-1.926-2.614-3.217-3.756-.124-.141-.247-.283-.382-.417-.321-.311-4.201-4.124-10.762-8.02-6.549-3.868-15.898-7.925-27.13-7.949-12.212-.093-26.198 5.264-38.587 19.096-2.966 3.277-2.714 8.335.561 11.301 1.531 1.387 3.453 2.07 5.368 2.07 2.181 0 4.353-.886 5.932-2.629 10.134-11.042 18.905-13.744 26.727-13.836 2.276-.008 4.509.264 6.657.732-16.244 8.892-25.882 17.34-38.391 33.733-4.493 6.922-5.004 12.601-3.555 17.336-11.22 10.941-35.243 30.889-74.012 46.393-6.409 2.563-9.527 9.838-6.963 16.249 2.563 6.408 9.839 9.526 16.248 6.962z"/><path d="m151.704 39.761c-.014-.095-.033-.208-.045-.297-.083-.645-.123-1.148-.144-1.457-.01-.154-.014-.26-.016-.311-.047-4.409-3.654-7.949-8.066-7.912-2.517.021-4.749 1.204-6.201 3.033-1.096 1.382-1.748 3.132-1.732 5.034.049.698.03 9.105 4.952 18.411.484.905 1.038 1.819 1.632 2.731 2.443 3.75 5.833 7.464 10.465 10.369 5.722 3.61 13.173 5.816 22.13 5.817.037 0 .073 0 .111-.001 6.251-.002 13.258-1.018 21.202-3.242 4.254-1.191 6.739-5.605 5.548-9.86-1.191-4.254-5.605-6.737-9.859-5.546-6.811 1.905-12.394 2.649-16.891 2.647-6.514-.018-10.7-1.483-13.732-3.368-2.754-1.721-4.72-4.016-6.141-6.47-.896-1.547-1.579-3.156-2.096-4.729-.606-1.862-.939-3.578-1.117-4.849z"/></g></svg>