<?xml version="1.0" encoding="iso-8859-1"?>
<!-- Generator: Adobe Illustrator 19.0.0, SVG Export Plug-In . SVG Version: 6.00 Build 0)  -->
<svg version="1.1" id="Capa_1" xmlns="http://www.w3.org/2000/svg" xmlns:xlink="http://www.w3.org/1999/xlink" x="0px" y="0px"
	 viewBox="0 0 512 512" style="enable-background:new 0 0 512 512;" xml:space="preserve">
<g transform="translate(-1)">
	<g>
		<g>
			<path d="M186.326,192c-25.847,27.578-60.795,44.877-98.397,48.705c-5.089,0.622-8.854,5.037-8.665,10.161v28.553
				c-0.188,5.124,3.576,9.539,8.665,10.165c37.579,3.819,72.515,21.08,98.379,48.608l142.464,0.094
				c16.048-16.363,35.165-29.401,56.258-38.367c-3.979-1.915-7.655-4.404-10.91-7.387c-7.313-7.237-11.429-17.099-11.429-27.388
				s4.115-20.151,11.429-27.388c3.22-2.987,6.859-5.489,10.801-7.424c-21.036-8.943-40.108-21.935-56.131-38.237L186.326,192z"/>
			<path d="M425.839,289.696l0.037,0.006c0.423-0.036,0.886-0.088,1.293-0.117c5.089-0.626,8.853-5.041,8.665-10.165v-28.553
				c0.188-5.124-3.576-9.539-8.665-10.165c-0.406-0.03-0.869-0.081-1.292-0.117l-0.039,0.006c-7.429-0.353-28.996,0.79-39.161,10.46
				c-7.601,7.858-7.601,20.329,0,28.187C396.848,288.915,418.438,290.067,425.839,289.696z"/>
			<path d="M83.063,83.125c6.298,13.617,11.743,27.613,16.304,41.906c4.682,14.482,6.723,29.688,6.027,44.893
				c-1.115,10.598-3.471,21.028-7.022,31.076c-1.308,4.197-2.607,8.353-3.665,12.473c-0.657,2.721-1.131,5.483-1.418,8.267
				c30.354-5.006,58.256-19.751,79.493-42.01c-9.225-9.259-21.617-14.676-34.677-15.16c-5.049-0.011-9.134-4.113-9.123-9.163
				c0.011-5.049,4.113-9.134,9.163-9.123c20.969,0.578,40.534,10.674,53.156,27.429h131.402
				c12.622-16.755,32.187-26.851,53.156-27.429c5.049,0,9.143,4.093,9.143,9.143s-4.093,9.143-9.143,9.143
				c-12.781,0.507-24.926,5.715-34.103,14.626c21.076,22.254,48.766,37.117,78.96,42.382c-0.288-2.728-0.759-5.433-1.411-8.097
				c-1.076-4.29-2.393-8.549-3.723-12.857c-3.472-9.919-5.781-20.209-6.88-30.661c-0.72-15.199,1.286-30.405,5.925-44.897
				c4.561-14.306,10.009-28.314,16.313-41.942c5.811-12.561,10.876-25.454,15.17-38.612C450.429,29.9,453.845,15.034,456.337,0
				H57.451c2.574,15.039,6.063,29.908,10.446,44.522C72.192,57.676,77.256,70.566,83.063,83.125z M221.745,127.906L221.745,127.906
				c-8.775,1.281-17.631,1.936-26.5,1.96c-49.205,0-71.612-21.754-72.688-22.83c-3.56-3.561-3.571-9.329-0.024-12.903
				c3.547-3.574,9.315-3.607,12.903-0.075c1.143,1.098,25.844,23.964,83.719,15.75c4.992-0.703,9.611,2.767,10.325,7.757
				C230.195,122.556,226.734,127.182,221.745,127.906z M391.487,107.035c-1.076,1.076-23.487,22.83-72.687,22.83
				c-8.869-0.024-17.724-0.679-26.5-1.96c-4.989-0.724-8.45-5.351-7.736-10.341c0.714-4.99,5.333-8.461,10.325-7.757
				c58,8.286,82.705-14.777,83.728-15.759c3.595-3.501,9.34-3.45,12.872,0.114C395.02,97.727,395.02,103.472,391.487,107.035z
				 M284.451,18.286c0-5.049,4.093-9.143,9.143-9.143c5.049,0,9.143,4.093,9.143,9.143c-0.319,4.941,1.505,9.779,5.006,13.28
				c3.501,3.501,8.34,5.325,13.28,5.006c12.472-0.397,24.601,4.122,33.772,12.585c4.839,3.951,7.183,5.701,11.942,5.701
				c8.236-0.946,15.462-5.926,19.277-13.286c2.291-4.475,7.766-6.261,12.255-3.998c4.49,2.263,6.31,7.726,4.075,12.23
				c-6.901,13.535-20.443,22.411-35.607,23.339c-8.8-0.165-17.207-3.677-23.509-9.821c-5.906-5.781-13.95-8.847-22.205-8.464
				c-9.785,0.287-19.254-3.474-26.176-10.395C287.925,37.54,284.164,28.07,284.451,18.286z M111.204,42.823
				c0.767-2.301,2.417-4.203,4.586-5.287c4.496-2.258,9.972-0.451,12.241,4.04c3.815,7.359,11.042,12.338,19.277,13.281
				c4.759,0,7.103-1.75,11.942-5.701c9.171-8.462,21.3-12.982,33.772-12.585c4.941,0.319,9.779-1.505,13.28-5.005
				s5.325-8.34,5.005-13.28c0-5.049,4.093-9.143,9.143-9.143c5.049,0,9.143,4.093,9.143,9.143
				c0.287,9.785-3.474,19.254-10.396,26.176c-6.922,6.922-16.391,10.682-26.176,10.395c-8.256-0.382-16.299,2.683-22.205,8.464
				c-6.302,6.144-14.709,9.656-23.509,9.821c-15.164-0.928-28.707-9.805-35.607-23.339
				C110.616,47.635,110.438,45.123,111.204,42.823z"/>
			<path d="M428.509,307.817v0.005c-33.219,3.507-64.054,18.896-86.826,43.335c-3.426,3.43-8.063,5.375-12.911,5.415h-62.629
				v118.857H480.46c0.112-20.899-1.193-41.782-3.906-62.505c-6.763-40.579-35.385-87.761-46.783-105.328
				C429.343,307.649,428.943,307.785,428.509,307.817z"/>
			<path d="M36.005,512h211.853v-18.286H34.055C34.549,501.472,35.328,507.703,36.005,512z"/>
			<path d="M266.142,512h211.853c0.678-4.3,1.459-10.532,1.953-18.286H266.142V512z"/>
			<path d="M173.406,351.147c-22.771-24.434-53.602-39.82-86.817-43.326c-0.787-0.058-1.523-0.276-2.29-0.401
				c-12.68,19.552-40.15,65.453-46.853,105.516c-2.713,20.718-4.018,41.597-3.906,62.491h214.317V356.571h-61.531
				C181.474,356.531,176.833,354.582,173.406,351.147z"/>
		</g>
	</g>
</g>
<g>
</g>
<g>
</g>
<g>
</g>
<g>
</g>
<g>
</g>
<g>
</g>
<g>
</g>
<g>
</g>
<g>
</g>
<g>
</g>
<g>
</g>
<g>
</g>
<g>
</g>
<g>
</g>
<g>
</g>
</svg>
