<svg id="flat" height="512" viewBox="0 0 512 512" width="512" xmlns="http://www.w3.org/2000/svg"><path d="m384 448-40 24-58.23-127.05-29.77-64.95-29.77 64.95-58.23 127.05-40-24 35.8-129.8 32.61-118.2h119.18l32.61 118.2z" fill="#ffceb6"/><path d="m348.2 318.2-62.43 26.75-29.77-64.95-29.77 64.95-62.43-26.75 32.61-118.2h119.18z" fill="#ffb401"/><path d="m352 139.78a51.54023 51.54023 0 0 1 -5.47 23.1499l-10.53 21.0701-32 64v8h-96v-8l-32-64-10.53-21.07007a51.76422 51.76422 0 0 1 46.31-74.92993h88.44a51.77647 51.77647 0 0 1 51.78 51.78z" fill="#548aff"/><path d="m232 56h48a0 0 0 0 1 0 0v24a24 24 0 0 1 -24 24 24 24 0 0 1 -24-24v-24a0 0 0 0 1 0 0z" fill="#ffceb6"/><path d="m232 56v-16l19.359-12.906a18.42223 18.42223 0 0 1 10.21879-3.094 18.42218 18.42218 0 0 1 18.42221 18.42219v13.57781z" fill="#b1712c"/><path d="m168 472v16h-80v-16l40-24z" fill="#e0edff"/><path d="m384 448 40 24v16h-80v-16z" fill="#e0edff"/><rect fill="#4f7ff7" height="35.652" rx="8" transform="matrix(.923 -.385 .385 .923 -42.721 91.27)" width="16" x="198.855" y="134.629"/><rect fill="#4f7ff7" height="16" rx="8" transform="matrix(.385 -.923 .923 .385 47.075 375.515)" width="35.652" x="287.319" y="144.455"/><path d="m284.80029 318.39941-9.60058-12.79882 8.92529-6.69434a22.49873 22.49873 0 0 0 5.21924-30.46777l-2.95899-4.43848h-60.7705l-2.959 4.43848a22.49773 22.49773 0 0 0 5.21875 30.46679l8.92578 6.69532-9.60058 12.79882-8.9253-6.69433a38.50338 38.50338 0 0 1 -8.93115-52.1416l5.334-8.001a7.9994 7.9994 0 0 1 6.65625-3.56248h69.333a7.9994 7.9994 0 0 1 6.65625 3.5625l5.334 8.001a38.50437 38.50437 0 0 1 -8.93164 52.14257z" fill="#d14521"/><path d="m240 232v24a16 16 0 1 1 -32 0v-8l-32-64 37.71-15.09009z" fill="#ffceb6"/><path d="m336 184-32 64v8a16 16 0 0 1 -32 0v-24l26.29-63.09009z" fill="#ffceb6"/><circle cx="256" cy="328" fill="#ef5e3b" r="32"/></svg>