<?xml version="1.0" encoding="iso-8859-1"?>
<!-- Generator: Adobe Illustrator 16.0.0, SVG Export Plug-In . SVG Version: 6.00 Build 0)  -->
<!DOCTYPE svg PUBLIC "-//W3C//DTD SVG 1.1//EN" "http://www.w3.org/Graphics/SVG/1.1/DTD/svg11.dtd">
<svg version="1.1" id="Capa_1" xmlns="http://www.w3.org/2000/svg" xmlns:xlink="http://www.w3.org/1999/xlink" x="0px" y="0px"
	 width="192.485px" height="192.485px" viewBox="0 0 192.485 192.485" style="enable-background:new 0 0 192.485 192.485;"
	 xml:space="preserve">
<g>
	<path d="M148.953,24.155c-1.127-8.144-11.302-19.448-11.302-19.448c-2.661-6.54-9.505-4.357-9.505-4.357l-4.579,1.179
		c-4.543,1.303-4.33,6.984-2.363,8.138c0.859,0.512,3.393,0.646,4.141,0c0.226-0.188,0.056-1.111,0.056-1.111
		c4.798,0.255,5.157-2.426,5.157-2.426l1.638-0.311c1.632-0.862,1.997,2.779,1.997,2.779c-1.107,10.309,3.538,14.094,3.538,14.094
		c-0.664,2.046-3.021,1.65-3.021,1.65c-7.459-3.703-12.988,3.312-12.988,3.312c-4.213-3.447-12.908,2.655-12.908,2.655
		c-4.872,0.913-5.151-4.701-5.151-4.701s-0.231-3.571-0.387-3.903c-0.244-0.56,1.035-0.268,1.035-0.268c4.289-7.475,0-6.479,0-6.479
		C105.346,2.082,93.548,4.777,93.548,4.777c-9.073,2.381-5.754,11.042-5.754,11.042c-1.988-0.463-1.035,2.375-1.035,2.375
		c0.518,4.372,2.152,3.386,2.152,3.386c0.204,1.522,1.108,3.629,1.108,3.629l0.131,3.504c-1.023,5.837-7.438,0.993-7.438,0.993
		c-3.766-5.082-13.201-2.247-13.201-2.247c-4.875-6.938-12.556-2.984-12.556-2.984c0.815-1.723-0.131-10.309-0.131-10.309
		c0.947-1.06,2.862-7.069,2.862-7.069c0.822,1.06,4.519,1.239,4.519,1.239c0.283,1.599,1.474,2.238,1.474,2.238
		c2.493,0.993,1.458-6.881,1.458-6.881c0.667-2.491-3.528-3.087-3.528-3.087C56.3-1.328,54.61,3.093,54.61,3.093l-1.915,3.992
		c-2.731,2.832-7.846,12.556-7.846,12.556c-2.947,7.739-0.131,9.137-0.131,9.137l5.319,3.952c9.006,8.354,14.45,7.152,14.45,7.152
		c7.243-0.131,6.64,4.359,6.64,4.359c0.292,6.878,5.307,14.012,5.307,14.012c1.184,3.845,1.732,8.086,1.763,12.081
		C77.81,82.456,73.84,97.557,74.525,104.6c0,0-10.053,20.903-3.671,26.884c0,0-0.399,6.247,11.277,10.734
		c0,0,6.787,4.884,7.459,6.248c0,0,3.522,10.997,7.337,18.59c0,0,2.98,8.153,1.635,12.495l-8.281,5.151c0,0-8.555,1.65-10.729,5.164
		c0,0-1.498,3.793,8.147,1.491c0,0,13.308-2.448,17.11-1.899c0,0,8.004,2.021,5.971-5.712c0,0-4.342-14.517-4.756-22.81
		c0,0,11.819,11.959,10.188,29.745c0,0-0.536,1.37,2.18,1.084c0,0,2.85,3.672,4.481-5.571c0,0,3.252-20.223,0.401-25.526
		c0,0-1.766-1.766-5.699-2.033c0,0-11.411-10.729-15.08-19.687c0,0-2.718-8.001-4.064-9.225l0.81-18.329
		c0,0,2.588-5.833,3.397-10.583c0,0,7.417-2.929,7.514-13.855c0.056-5.571-0.499-5.554-2.118-13.865
		c0.207-1.689,0.499-3.236,0.883-4.29c0.621-1.827,2.929-7.925,4.634-10.221c2.819-3.796,6.661-8.729,8.074-12.014
		c2.776-6.43,4.079-6.281,4.079-6.281c9.901,0,15.369-6.877,15.369-6.877c1.626-1.988,4.08-4.445,5.883-5.426
		C149.367,26.637,148.953,24.155,148.953,24.155z"/>
</g>
<g>
</g>
<g>
</g>
<g>
</g>
<g>
</g>
<g>
</g>
<g>
</g>
<g>
</g>
<g>
</g>
<g>
</g>
<g>
</g>
<g>
</g>
<g>
</g>
<g>
</g>
<g>
</g>
<g>
</g>
</svg>
