<svg id="_x33_0" enable-background="new 0 0 64 64" height="512" viewBox="0 0 64 64" width="512" xmlns="http://www.w3.org/2000/svg"><g><path d="m26 17c0 .552.448 1 1 1h2c.552 0 1-.448 1-1v-14c0-.552-.448-1-1-1h-2c-.552 0-1 .448-1 1v5h-2.98l-.02 4h3z"/><path d="m6 3c0-.552-.448-1-1-1h-2c-.552 0-1 .448-1 1v14c0 .552.448 1 1 1h2c.552 0 1-.448 1-1v-5h3v-4h-3z"/><path d="m35 20.838c0 2.295 1.867 4.162 4.162 4.162h2.838v2h-2.093c-.207 1.172-.767 2.274-1.614 3.121l-1.293 1.293v1.726c0 1.577 1.283 2.86 2.86 2.86.993 0 1.899-.503 2.425-1.344l2.398-3.837c.25-.4.546-.759.871-1.082-.978-.926-1.554-2.218-1.554-3.62v-4.531l2.672-2.672c.209-.209.328-.498.328-.793 0-.618-.503-1.121-1.121-1.121h-1.879v-1.396c0-1.725-1.1-3.249-2.735-3.795l-1.204-.401-.346.606c-.673 1.178-1.813 2.042-3.129 2.37l-1.076.27c-.3.074-.51.344-.51.653 0 .178.072.351.197.477l.947.946-.932 2.792c-.14.425-.212.869-.212 1.316z"/><path d="m12 11h4c.552 0 1-.448 1-1v-2c0-.552-.448-1-1-1h-4c-.552 0-1 .448-1 1v2c0 .552.448 1 1 1z"/><path d="m45.97 15.001c1.68.049 3.03 1.43 3.03 3.12 0 .822-.333 1.626-.914 2.207l-2.086 2.086v2.277l1.843-.502c4.214-1.15 7.157-5.003 7.157-9.372 0-4.31-3.507-7.817-7.817-7.817-2.318 0-4.464 1.011-5.941 2.693l.656.219c2.261.754 3.838 2.755 4.072 5.089z"/><path d="m21.764 32.236-.33.165c.129.394.276.781.461 1.152l-1.789.895c-.724-1.449-1.106-3.068-1.106-4.684v-14.067l1.328-1.992c.44-.659.672-1.426.672-2.219v-6.486c-1.103 0-2 .897-2 2v3c0 1.654-1.346 3-3 3h-4c-.309 0-.601-.06-.882-.147.169.714.521 1.373 1.053 1.905l.829.828v19.973c0 3.096 2.417 5.723 5.502 5.98l2.58.215c-.047-.059-.101-.112-.147-.173l-.735-.981 1.6-1.199.735.98c1.23 1.64 3.189 2.619 5.239 2.619.706 0 1.402-.113 2.071-.336l.491-.164c-.218-1.105-.336-2.23-.336-3.355 0-2.214.417-4.38 1.239-6.436.105-.261.24-.502.388-.732-3.117-1.333-6.828-1.259-9.863.259z"/><path d="m60.14 46.012-1.14-1.709v-3.196c0-1.878-.443-3.758-1.283-5.438-.49-.98-1.115-1.877-1.853-2.669h-1.259c-2.549 0-4.914 1.266-6.328 3.387-.836 1.254-1.277 2.713-1.277 4.218 0 2.361 1.258 4.583 3.283 5.798l2.421 1.453-8.483 7.271-3.143-1.048c-.159-.053-.325-.079-.494-.079-.596 0-1.131.331-1.397.864l-.441.882-2.59 1.294c-.714.356-1.156 1.073-1.156 1.87 0 1.152.937 2.09 2.09 2.09 1.097 0 2.192-.259 3.17-.749l4.407-2.194 13.091-4.62c1.939-.685 3.242-2.526 3.242-4.583 0-1.015-.298-1.999-.86-2.842z"/><path d="m35 55.405c.087-.052.169-.108.261-.154l1.994-.996.143-.286c.606-1.214 1.828-1.969 3.186-1.969.386 0 .766.062 1.129.184l2.066.688 5.517-4.729-.042-.025c-2.624-1.574-4.254-4.452-4.254-7.513 0-1.902.558-3.744 1.613-5.328 1.578-2.367 4.096-3.892 6.882-4.214-.032-.02-.065-.04-.099-.06-1.095-.655-2.348-1.003-3.625-1.003-1.389 0-2.656.703-3.393 1.88l-2.397 3.836c-.892 1.43-2.433 2.284-4.121 2.284-2.68 0-4.86-2.181-4.86-4.86v-1.104c-.846.089-1.582.611-1.903 1.416-.728 1.819-1.097 3.734-1.097 5.693 0 2.368.56 4.739 1.618 6.856.904 1.806 1.382 3.83 1.382 5.853z"/></g></svg>