<svg id="flat" height="512" viewBox="0 0 512 512" width="512" xmlns="http://www.w3.org/2000/svg"><path d="m464 312-128.19 39.44-79.81 24.56-8-53.18 71.28-20.96 128.72-37.86z" fill="#ffbfa1"/><path d="m464 312h24v-88h-16l-24 40z" fill="#e0edff"/><path d="m335.81 351.44-79.81 24.56-8-53.18 71.28-20.96z" fill="#ffa100"/><path d="m367 245.66992a50.29238 50.29238 0 0 0 -77.87988-5.96l-41.12012 43.40008v-126.63a44.45787 44.45787 0 0 0 -66.07007-38.88l-61.92993 34.4-8 24h-24l-45.12988 33.84a47.18876 47.18876 0 0 0 11.37988 81.79l26.37988 10.15 47.37012 18.22 30.62012 51.04q1.16967 1.9499 2.48974 3.78992a59.63662 59.63662 0 0 0 96.77.79l22.78-31.07 47.34014-64.54992 64 64 32-16zm-223 10.33008-47.28-10.51-24.72-5.49 24-32 43.24-14.49 12.76-25.51 48-8-16 80z" fill="#ffceb6"/><path d="m121.97607 171.86777a8.00017 8.00017 0 0 1 8.00017 8.00017v12.21626a8.00018 8.00018 0 0 1 -8.00018 8.00018 8.00017 8.00017 0 0 1 -8.00017-8.00017v-12.21626a8.00017 8.00017 0 0 1 8.00018-8.00018z" fill="#ffbfa1" transform="matrix(.707 -.707 .707 .707 -95.779 140.721)"/><path d="m424 328 40 24v16h-72v-24z" fill="#e0edff"/><path d="m248 200v83.11l-86.89014 91.72q-1.31982-1.845-2.48974-3.78992l-30.62012-51.04008-47.37012-18.22 16.09012-56.29 47.28 10.51 40-16 8-40z" fill="#548aff"/><path d="m176.97057 256.97054a24 24 0 0 1 -33.9411 0l-5.65687-5.65687v-22.62739l22.6274-22.62741 16.97058 16.97058a24 24 0 0 1 -.00001 33.94109z" fill="#ffceb6"/><path d="m160 206.05887-4.69055-14.07165a12.94417 12.94417 0 0 0 -3.127-5.05964 12.94426 12.94426 0 0 0 -18.30595 0l-13.4745 13.47442a24 24 0 0 0 0 33.94113l16.97056 16.97056v-22.62741z" fill="#b1712c"/><path d="m280.65991 344.55005-22.78 31.07a59.63967 59.63967 0 0 1 -96.77-.79l68.77-72.59z" fill="#ffb401"/></svg>